<svg width="21" height="25" viewBox="0 0 21 25" fill="none" xmlns="http://www.w3.org/2000/svg">
<path d="M3.06317 3.40596C5.02438 1.43494 7.68436 0.327637 10.4579 0.327637C13.2315 0.327637 15.8915 1.43494 17.8527 3.40596C19.8139 5.37698 20.9157 8.05026 20.9157 10.8377C20.9157 13.6251 19.8139 16.2984 17.8527 18.2694L16.4271 19.6865C15.3762 20.7221 14.013 22.0547 12.3364 23.6842C11.8324 24.1739 11.1589 24.4476 10.4579 24.4476C9.75697 24.4476 9.08344 24.1739 8.57952 23.6842L4.38671 19.5851C3.85825 19.0649 3.41867 18.6267 3.06317 18.2694C2.09203 17.2935 1.32168 16.1349 0.796094 14.8598C0.270514 13.5846 0 12.2179 0 10.8377C0 9.45749 0.270514 8.09079 0.796094 6.81565C1.32168 5.5405 2.09203 4.38189 3.06317 3.40596ZM16.5784 4.68543C15.7745 3.87758 14.8201 3.23677 13.7698 2.7996C12.7195 2.36242 11.5938 2.13744 10.4569 2.1375C9.32006 2.13755 8.19436 2.36264 7.14408 2.79992C6.09379 3.2372 5.13949 3.8781 4.33566 4.68603C3.53183 5.49396 2.89422 6.45309 2.45922 7.50867C2.02422 8.56425 1.80035 9.6956 1.80041 10.8381C1.80046 11.9807 2.02444 13.112 2.45954 14.1675C2.89464 15.2231 3.53235 16.1821 4.33626 16.99L6.1234 18.7619C7.10585 19.7288 8.34291 20.9358 9.8322 22.383C10.0001 22.546 10.2245 22.6371 10.4579 22.6371C10.6914 22.6371 10.9157 22.546 11.0837 22.383L15.1612 18.3998C15.7257 17.8434 16.1977 17.3738 16.5784 16.99C18.2016 15.3586 19.1135 13.146 19.1135 10.8389C19.1135 8.53183 18.2016 6.31923 16.5784 4.68784V4.68543ZM10.4579 7.54732C10.9314 7.54732 11.4003 7.64104 11.8377 7.82314C12.2751 8.00524 12.6726 8.27215 13.0074 8.60862C13.3422 8.9451 13.6078 9.34455 13.789 9.78418C13.9702 10.2238 14.0634 10.695 14.0634 11.1708C14.0634 11.6467 13.9702 12.1179 13.789 12.5575C13.6078 12.9971 13.3422 13.3966 13.0074 13.7331C12.6726 14.0695 12.2751 14.3365 11.8377 14.5186C11.4003 14.7007 10.9314 14.7944 10.4579 14.7944C9.51325 14.777 8.61308 14.3877 7.9511 13.7102C7.28912 13.0326 6.91823 12.121 6.91823 11.1715C6.91823 10.2219 7.28912 9.31026 7.9511 8.63272C8.61308 7.95517 9.51325 7.56585 10.4579 7.54852V7.54732ZM10.4579 9.35787C9.9795 9.35787 9.52065 9.54888 9.18235 9.88888C8.84404 10.2289 8.65398 10.69 8.65398 11.1708C8.65398 11.6517 8.84404 12.1128 9.18235 12.4528C9.52065 12.7928 9.9795 12.9838 10.4579 12.9838C10.9282 12.9716 11.375 12.7753 11.7033 12.4368C12.0316 12.0982 12.2153 11.6442 12.2153 11.1715C12.2153 10.6987 12.0316 10.2447 11.7033 9.90613C11.375 9.56758 10.9282 9.37128 10.4579 9.35908V9.35787Z" fill="#989BA1"/>
</svg>
